<svg width="87" height="71" viewBox="0 0 87 71" fill="none" xmlns="http://www.w3.org/2000/svg">
<path fill-rule="evenodd" clip-rule="evenodd" d="M0 10C0 4.47715 4.47715 0 10 0H60C65.5229 0 70 4.47715 70 10V12.0352C69.6697 12.0119 69.3362 12 69 12H27C19.268 12 13 18.268 13 26V53C13 53.679 13.0483 54.3468 13.1418 55H10C4.47715 55 0 50.5228 0 45V10ZM27 16C21.4772 16 17 20.4772 17 26V61C17 66.5228 21.4772 71 27 71H77C82.5229 71 87 66.5228 87 61V26C87 20.4772 82.5229 16 77 16H27ZM43 44C47.4183 44 51 40.4183 51 36C51 31.5817 47.4183 28 43 28C38.5817 28 35 31.5817 35 36C35 40.4183 38.5817 44 43 44ZM23 57.8397C23 56.672 23.5103 55.5626 24.3968 54.8027L32.3765 47.963C33.1015 47.3416 34.0248 47 34.9797 47H36.2557C37.368 47 38.43 47.4631 39.1869 48.2782L41.8465 51.1423C43.3227 52.7322 45.7973 52.8553 47.4241 51.4199L53 46.5L59.3724 40.9772C60.0997 40.347 61.0298 40 61.9921 40H63.5379C64.4821 40 65.3958 40.334 66.1174 40.9428L79.5795 52.3014C80.4803 53.0615 81 54.18 81 55.3586V62C81 64.2091 79.2091 66 77 66H27C24.7909 66 23 64.2091 23 62V57.8397Z" />
</svg>
