<svg width="18" height="18" viewBox="0 0 18 18" fill="none" xmlns="http://www.w3.org/2000/svg">
<path d="M17.1493 2.44768L17.7771 1.80236C18.0736 1.48843 18.0736 1.06985 17.7771 0.782071L17.5766 0.57278C17.3062 0.302446 16.8789 0.337328 16.5912 0.616382L15.9546 1.24426L17.1493 2.44768ZM6.65856 11.9617L8.35905 11.2205L16.504 3.08427L15.3093 1.90701L7.17307 10.0432L6.38823 11.6826C6.31846 11.8309 6.49287 12.0315 6.65856 11.9617ZM3.48432 17.6125H13.7221C15.2918 17.6125 16.1987 16.7056 16.1987 14.9092V5.58704L14.7947 6.99103V14.8394C14.7947 15.7464 14.3064 16.2086 13.7047 16.2086H3.51048C2.63843 16.2086 2.15009 15.7464 2.15009 14.8394V4.94173C2.15009 4.0348 2.63843 3.5639 3.51048 3.5639H11.4548L12.8588 2.1599H3.48432C1.67046 2.1599 0.746094 3.06683 0.746094 4.86324V14.9092C0.746094 16.7143 1.67046 17.6125 3.48432 17.6125Z" />
</svg>
