<svg width="26" height="20" viewBox="0 0 26 20" fill="none" xmlns="http://www.w3.org/2000/svg">
<path d="M3.41313 20H22.5846C24.766 20 25.8777 18.9093 25.8777 16.7488V5.76822C25.8777 3.60776 24.766 2.52753 22.5846 2.52753H19.5851C18.7566 2.52753 18.5049 2.35973 18.0329 1.83534L17.1939 0.891453C16.6695 0.31463 16.1347 0 15.0544 0H10.8699C9.78963 0 9.25476 0.31463 8.73038 0.891453L7.89136 1.83534C7.41942 2.34924 7.15723 2.52753 6.33919 2.52753H3.41313C1.2212 2.52753 0.119995 3.60776 0.119995 5.76822V16.7488C0.119995 18.9093 1.2212 20 3.41313 20ZM12.9989 16.9061C9.8211 16.9061 7.27259 14.3681 7.27259 11.1694C7.27259 7.98112 9.8211 5.4431 12.9989 5.4431C16.1766 5.4431 18.7146 7.98112 18.7146 11.1694C18.7146 14.3681 16.1661 16.9061 12.9989 16.9061ZM19.4173 7.30991C19.4173 6.59675 20.0466 5.96749 20.7807 5.96749C21.5044 5.96749 22.1231 6.59675 22.1231 7.30991C22.1231 8.05454 21.5044 8.65233 20.7807 8.66282C20.0466 8.66282 19.4173 8.06502 19.4173 7.30991ZM12.9989 15.312C15.2852 15.312 17.131 13.4767 17.131 11.1694C17.131 8.87257 15.2852 7.02674 12.9989 7.02674C10.7125 7.02674 8.85623 8.87257 8.85623 11.1694C8.85623 13.4767 10.723 15.312 12.9989 15.312Z" fill="white"/>
</svg>
