<svg width="28" height="13" viewBox="0 0 28 13" fill="none" xmlns="http://www.w3.org/2000/svg">
<path fill-rule="evenodd" clip-rule="evenodd" d="M0 4C0 1.79086 1.79086 0 4 0H21C23.2091 0 25 1.79086 25 4V9C25 11.2091 23.2091 13 21 13H4C1.79086 13 0 11.2091 0 9V4Z" fill="#30D158"/>
<path d="M26 5V9.22034C26.8491 8.86291 27.4012 8.0314 27.4012 7.11017C27.4012 6.18894 26.8491 5.35744 26 5Z" fill="#30D158"/>
<path d="M3.7698 10H5.31277L8.25711 4.14062V2.94922H3.21805V4.12598H6.77273V4.20898L3.7698 10ZM12.1452 10.1807C13.8884 10.1807 14.9431 8.75488 14.9431 6.47949V6.46973C14.9431 4.18945 13.8884 2.77344 12.1452 2.77344C10.407 2.77344 9.34738 4.18945 9.34738 6.46973V6.47949C9.34738 8.75488 10.407 10.1807 12.1452 10.1807ZM12.1452 9.01367C11.3152 9.01367 10.8415 8.07129 10.8415 6.47949V6.46973C10.8415 4.87305 11.3152 3.94043 12.1452 3.94043C12.9802 3.94043 13.4538 4.87305 13.4538 6.46973V6.47949C13.4538 8.07129 12.9802 9.01367 12.1452 9.01367Z" fill="white"/>
<path d="M16.6562 6.9139C16.6562 6.98532 16.6811 7.04484 16.7309 7.09246C16.7807 7.13791 16.8424 7.16063 16.916 7.16063H18.8346L17.8282 9.84217C17.7936 9.93524 17.7871 10.0153 17.8087 10.0824C17.8325 10.1495 17.8726 10.1982 17.9288 10.2285C17.9851 10.2588 18.0479 10.2653 18.1171 10.248C18.1886 10.2307 18.2546 10.1841 18.3152 10.1084L21.409 6.31007C21.4696 6.23432 21.4999 6.15857 21.4999 6.08282C21.4999 6.0114 21.475 5.95296 21.4252 5.90751C21.3776 5.8599 21.3159 5.83609 21.2402 5.83609H19.3248L20.3279 3.15455C20.3647 3.06149 20.3712 2.98249 20.3474 2.91757C20.3258 2.85047 20.2868 2.80178 20.2306 2.77148C20.1743 2.74118 20.1104 2.73468 20.039 2.752C19.9698 2.76931 19.9048 2.81476 19.8442 2.88835L16.7504 6.6899C16.6876 6.76565 16.6562 6.84032 16.6562 6.9139Z" fill="white"/>
</svg>
