<svg width="11" height="23" viewBox="0 0 11 23" fill="none" xmlns="http://www.w3.org/2000/svg">
<path d="M0.309998 2.39941H10.687V1.90723C10.687 0.615234 10.0512 0 8.82074 0H2.17621C0.94574 0 0.309998 0.615234 0.309998 1.90723V2.39941ZM4.26801 22.9585H6.72894C7.95941 22.9585 8.5849 22.3433 8.5849 21.0513V10.1616C8.5849 9.08496 8.84125 8.30566 9.2309 7.71094L9.8974 6.72656C10.3691 5.99854 10.687 5.31152 10.687 4.43994V3.59912H0.309998V4.43994C0.309998 5.31152 0.627869 5.99854 1.09955 6.72656L1.7558 7.71094C2.1557 8.30566 2.40179 9.08496 2.40179 10.1616V21.0513C2.40179 22.3433 3.03754 22.9585 4.26801 22.9585ZM5.49847 15.0732C4.65765 15.0732 4.1142 14.458 4.1142 13.5967V10.7871C4.1142 9.91553 4.65765 9.33105 5.49847 9.35156C6.32904 9.36182 6.88275 9.94629 6.88275 10.7871V13.5967C6.88275 14.458 6.32904 15.0732 5.49847 15.0732ZM5.49847 14.3452C5.94965 14.3452 6.33929 13.9658 6.33929 13.5044C6.33929 13.043 5.94965 12.6533 5.49847 12.6533C5.03705 12.6533 4.6474 13.043 4.6474 13.5044C4.6474 13.9658 5.03705 14.3452 5.49847 14.3452Z" fill="white"/>
</svg>
