<svg width="20" height="19" viewBox="0 0 20 19" fill="none" xmlns="http://www.w3.org/2000/svg">
<path d="M10 18.8477C15.0361 18.8477 19.1846 14.6904 19.1846 9.6543C19.1846 4.61816 15.0273 0.469727 10 0.469727C4.96387 0.469727 0.81543 4.61816 0.81543 9.6543C0.81543 14.6904 4.96387 18.8477 10 18.8477ZM9.99121 13.7676C9.41113 13.7676 9.04199 13.3545 9.04199 12.7744V10.6123H6.74805C6.15918 10.6123 5.7373 10.2432 5.7373 9.67188C5.7373 9.0918 6.15039 8.71387 6.74805 8.71387H9.04199V6.44629C9.04199 5.85742 9.41113 5.44434 9.99121 5.44434C10.5625 5.44434 10.9492 5.84863 10.9492 6.44629V8.71387H13.252C13.8496 8.71387 14.2539 9.0918 14.2539 9.67188C14.2539 10.2432 13.832 10.6123 13.252 10.6123H10.9492V12.7744C10.9492 13.3633 10.5625 13.7676 9.99121 13.7676Z" />
</svg>
