<svg width="64" height="64" viewBox="0 0 64 64" fill="none" xmlns="http://www.w3.org/2000/svg">
<path d="M30.08.112a31.714 31.714 0 0 0-16.747 5.955C6.005 11.374 1.322 19.34.253 28.32c-.218 1.831-.218 5.529 0 7.36.765 6.423 3.365 12.339 7.548 17.173 5.296 6.122 12.483 9.937 20.519 10.894 1.831.218 5.529.218 7.36 0 7.096-.845 13.493-3.891 18.598-8.856 5.293-5.148 8.591-11.84 9.469-19.211.101-.847.165-2.279.165-3.68 0-1.401-.064-2.833-.165-3.68-.845-7.096-3.891-13.493-8.856-18.598C48.387 3.035 39.484-.414 30.08.112m5.23 5.065c11.307 1.392 20.6 9.832 23.076 20.956.813 3.654.813 8.08 0 11.734-2.48 11.139-11.755 19.562-23.076 20.956-1.722.212-4.898.212-6.62 0-5.979-.736-11.498-3.437-15.787-7.726-4.321-4.321-6.997-9.818-7.739-15.897-.246-2.02-.164-5.802.166-7.666 1.006-5.68 3.565-10.622 7.573-14.631 4.237-4.237 9.763-6.964 15.637-7.716 1.623-.208 5.12-.213 6.77-.01m-.215 13.636L22.03 22.029l-3.229 13.163c-1.776 7.239-3.213 13.178-3.192 13.199.02.02 5.96-1.416 13.199-3.193l13.163-3.23 3.223-13.117a3280.92 3280.92 0 0 0 3.228-13.198c.003-.044-.055-.075-.129-.068-.073.006-6.012 1.458-13.198 3.228m6.574 3.72c-.035.132-.886 3.6-1.892 7.707-1.005 4.107-1.882 7.521-1.949 7.588-.118.118-15.428 3.914-15.499 3.843-.052-.052 3.676-15.241 3.787-15.431.063-.106 2.626-.785 7.709-2.041 4.188-1.035 7.681-1.887 7.761-1.894.1-.008.126.063.083.228" fill-rule="evenodd" />
</svg>