<svg width="54" height="47" viewBox="0 0 54 47" fill="none" xmlns="http://www.w3.org/2000/svg"><path d="M8.4 1.122c-1.935.354-3.546 1.863-4.185 3.918-.174.56-.209.866-.205 1.8.004.99.034 1.212.254 1.844.464 1.339.607 1.507 5.27 6.211 2.404 2.426 6.274 6.348 8.601 8.715 3.004 3.057 4.409 4.424 4.849 4.717a7.01 7.01 0 0 0 6.504.692c1.174-.465 1.756-.935 4.397-3.542a6292.38 6292.38 0 0 1 14.563-14.315l.515-.494-.024 14.178-.024 14.178-.335.677a4.048 4.048 0 0 1-3.085 2.235c-.864.124-36.126.124-36.99 0a4.048 4.048 0 0 1-3.085-2.235l-.335-.677-.024-11.997-.024-11.997H0v11.823c0 12.8-.009 12.53.488 13.987a8.866 8.866 0 0 0 2.179 3.505 9.052 9.052 0 0 0 4.603 2.451c.893.182 1.122.184 19.73.184s18.837-.002 19.73-.184c3.708-.756 6.481-3.617 7.138-7.365.112-.643.132-2.923.132-15.361 0-9.987-.031-14.828-.097-15.307-.455-3.266-2.826-6.171-5.912-7.243-1.466-.509-.045-.474-20.316-.496-15.046-.016-18.754.003-19.275.098m37.709 5.05c.144.085-.972 1.216-8.91 9.03-4.991 4.913-9.216 9.005-9.389 9.093-.505.257-.946.301-1.479.146-.464-.135-.671-.334-6.263-6.013-3.181-3.23-6.989-7.068-8.463-8.528-1.474-1.46-2.723-2.743-2.777-2.851-.109-.22-.059-.409.206-.772l.181-.249 18.365.024c12.953.016 18.413.052 18.529.12"/></svg>