<svg width="54" height="54" viewBox="0 0 54 54" fill="none" xmlns="http://www.w3.org/2000/svg">
<path d="M26.28.06C18.87.433 13.053 6.344 13.053 13.5c0 2.105.438 3.929 1.413 5.886.5 1.003.718 1.343 1.49 2.326 2.149 2.734 5.459 4.599 9.064 5.108.982.139 2.978.139 3.96 0 4.048-.571 7.538-2.745 9.804-6.107.442-.655 1.25-2.316 1.523-3.129.445-1.325.589-2.328.589-4.084 0-2.348-.272-3.578-1.25-5.638C37.9 4.183 34.512 1.453 30.465.464 29.222.161 27.526-.003 26.28.06m1.845 4.99c2.725.334 5.129 1.815 6.594 4.061 1.711 2.623 1.711 6.155 0 8.778-3.173 4.865-10.261 5.553-14.31 1.389C18.803 17.626 18 15.701 18 13.5c0-2.179.763-4.045 2.326-5.687a8.883 8.883 0 0 1 4.042-2.459c1.333-.379 2.425-.467 3.757-.304M11.514 31.232C6.192 32.17 1.769 36.284.45 41.523.038 43.159.001 43.788 0 49.072V54h5.032l.029-5.288c.033-6.017.017-5.868.839-7.577 1.337-2.777 3.843-4.601 6.925-5.042.397-.056 5.632-.089 14.175-.089 8.543 0 13.778.033 14.175.089 3.082.441 5.588 2.265 6.925 5.042.822 1.709.806 1.56.839 7.577L48.968 54H54.011l-.035-5.422c-.034-5.214-.043-5.458-.236-6.323-.419-1.875-1.088-3.484-2.059-4.95-2.131-3.218-5.514-5.437-9.267-6.079-.997-.17-1.523-.176-15.49-.169-13.682.007-14.51.017-15.41.175"  fill-rule="evenodd"/>
</svg>